<svg width="200" height="60" viewBox="0 0 200 60" fill="none" xmlns="http://www.w3.org/2000/svg">
  <path d="M40 10H20C14.4772 10 10 14.4772 10 20V40C10 45.5228 14.4772 50 20 50H40C45.5228 50 50 45.5228 50 40V20C50 14.4772 45.5228 10 40 10Z" fill="#FF6B00"/>
  <path d="M30 20L40 30L30 40L20 30L30 20Z" fill="white"/>
  <path d="M65 20H70.5L78 40H72L70.5 35H65L63.5 40H58L65 20ZM69 31L67.5 26L66 31H69Z" fill="#333333"/>
  <path d="M80 20H85V35H93V40H80V20Z" fill="#333333"/>
  <path d="M95 20H108V25H100V27.5H107V32.5H100V35H108V40H95V20Z" fill="#333333"/>
  <path d="M110 20H115V40H110V20Z" fill="#333333"/>
  <path d="M125 20H130L137.5 40H131.5L130 35H124.5L123 40H117.5L125 20ZM129 31L127.5 26L126 31H129Z" fill="#333333"/>
  <path d="M140 20H146L151 31L156 20H162V40H157V28L151 40H151L145 28V40H140V20Z" fill="#333333"/>
  <path d="M165 20H170V40H165V20Z" fill="#333333"/>
  <path d="M175 20H180L187.5 31V20H192.5V40H187.5L180 29V40H175V20Z" fill="#333333"/>
</svg>
